<svg class="icon" width="32px" height="32.00px" viewBox="0 0 1024 1024" version="1.1" xmlns="http://www.w3.org/2000/svg"><path d="M0 0h1024v1024H0z" fill="currentColor" fill-opacity="0" /><path d="M458.666667 640v128a32 32 0 1 1-64 0v-128a32 32 0 1 1 64 0z m138.666666-32a32 32 0 0 0-32 32v128a32 32 0 1 0 64 0v-128a32 32 0 0 0-32-32z m264.533334-76.202667l-32.725334 256.426667a160.298667 160.298667 0 0 1-158.72 139.733333h-315.733333a160.426667 160.426667 0 0 1-158.634667-139.221333l-33.706666-256.938667a117.034667 117.034667 0 0 1 51.2-222.506666h67.242666l118.656-197.802667a32 32 0 0 1 54.869334 32.938667L355.370667 309.290667h313.642666l-98.944-164.864a32 32 0 0 1 54.869334-32.938667l118.656 197.802667H810.666667a117.034667 117.034667 0 0 1 51.2 222.506666z m-66.090667 12.202667H228.48l31.018667 236.458667a96.256 96.256 0 0 0 95.146666 83.541333h315.733334a96.128 96.128 0 0 0 95.189333-83.84l30.208-236.16z m68.266667-117.333333a53.418667 53.418667 0 0 0-53.333334-53.333334H213.333333a53.333333 53.333333 0 1 0 0 106.666667h597.333334A53.418667 53.418667 0 0 0 864 426.666667h0.042667z" fill="currentColor" /></svg>