<svg class="icon" width="32px" height="32.00px" viewBox="0 0 1024 1024" version="1.1" xmlns="http://www.w3.org/2000/svg"><path d="M0 0h1024v1024H0z" fill="currentColor" fill-opacity="0" /><path d="M714.666667 409.301333V298.666667a202.666667 202.666667 0 1 0-405.333334 0v110.677333a202.624 202.624 0 0 0-128 187.989333v128A202.922667 202.922667 0 0 0 384 928h256A202.922667 202.922667 0 0 0 842.666667 725.333333v-128a202.666667 202.666667 0 0 0-128-188.032zM373.333333 298.666667a138.666667 138.666667 0 0 1 277.333334 0v97.066666c-3.626667-0.213333-6.997333-1.066667-10.666667-1.066666H384c-3.669333 0-7.04 0.896-10.666667 1.066666V298.666667z m405.333334 426.666666A138.837333 138.837333 0 0 1 640 864H384A138.837333 138.837333 0 0 1 245.333333 725.333333v-128A138.837333 138.837333 0 0 1 384 458.666667h256A138.837333 138.837333 0 0 1 778.666667 597.333333v128z m-234.666667-85.333333v42.666667a32 32 0 1 1-64 0v-42.666667a32 32 0 1 1 64 0z" fill="currentColor" /></svg>