<svg class="icon" width="32px" height="32.00px" viewBox="0 0 1024 1024" version="1.1" xmlns="http://www.w3.org/2000/svg"><path d="M0 0h1024v1024H0z" fill="currentColor" fill-opacity="0" /><path d="M505.813333 151.509333a137.130667 137.130667 0 0 0-148.010666 20.736l-110.933334 94.976a10.325333 10.325333 0 0 1-6.869333 2.56h-31.488a113.152 113.152 0 0 0-112.725333 113.066667v258.176a113.194667 113.194667 0 0 0 112.768 113.066667h31.402666c2.56 0 5.034667 0.853333 6.954667 2.56l110.677333 94.976a137.344 137.344 0 0 0 147.84 20.821333 137.557333 137.557333 0 0 0 81.066667-126.250667V277.76a137.386667 137.386667 0 0 0-80.682667-126.250667z m17.066667 594.688a74.624 74.624 0 0 1-123.178667 56.917334l-110.634666-94.933334a74.88 74.88 0 0 0-48.554667-18.005333H209.066667a49.066667 49.066667 0 0 1-48.853334-49.066667V382.933333A49.066667 49.066667 0 0 1 209.066667 333.866667h31.445333c17.792 0 34.986667-6.4 48.512-17.962667l110.72-94.933333c13.269333-11.690667 30.293333-18.176 48-18.261334 10.922667 0.042667 21.674667 2.474667 31.573333 7.082667 26.922667 11.946667 44.074667 38.826667 43.562667 68.266667v468.352-0.213334z m185.514667-381.568a245.504 245.504 0 0 1 0 294.741334 32.085333 32.085333 0 0 1-51.2-38.698667 181.162667 181.162667 0 0 0 0-217.258667 32.128 32.128 0 0 1 51.2-38.784zM928 512a414.165333 414.165333 0 0 1-106.325333 277.333333 32 32 0 1 1-47.616-42.666666 351.104 351.104 0 0 0 0-469.333334 32 32 0 0 1 47.616-42.666666A414.208 414.208 0 0 1 928 512z" fill="currentColor" /></svg>