<svg class="icon" width="32px" height="32.00px" viewBox="0 0 1024 1024" version="1.1" xmlns="http://www.w3.org/2000/svg"><path d="M0 0h1024v1024H0z" fill="currentColor" fill-opacity="0" /><path d="M649.728 138.837333A266.453333 266.453333 0 0 1 858.026667 238.933333a313.258667 313.258667 0 0 1 64.256 256.554667c-41.6 213.162667-258.730667 362.026667-350.122667 416.170667-37.12 21.973333-83.2 21.973333-120.277333 0-91.434667-54.101333-308.522667-202.837333-350.122667-416.170667A313.088 313.088 0 0 1 165.973333 238.933333a266.368 266.368 0 0 1 208.298667-100.096A288.213333 288.213333 0 0 1 512 173.312a288.512 288.512 0 0 1 137.728-34.474667z m-0.170667 64a223.146667 223.146667 0 0 0-120.490666 34.56 32.085333 32.085333 0 0 1-34.474667 0 223.232 223.232 0 0 0-120.490667-34.56 203.52 203.52 0 0 0-158.933333 76.8 248.490667 248.490667 0 0 0-50.773333 203.605334c36.693333 187.690667 235.989333 323.626667 320 373.333333 16.981333 10.069333 38.058667 10.069333 55.04 0 84.096-49.706667 283.392-185.6 320-373.333333a248.832 248.832 0 0 0-50.944-203.605334 203.605333 203.605333 0 0 0-158.933334-76.8z" fill="currentColor" /></svg>