<svg class="icon" width="32px" height="32.00px" viewBox="0 0 1024 1024" version="1.1" xmlns="http://www.w3.org/2000/svg"><path d="M0 0h1024v1024H0z" fill="currentColor" fill-opacity="0" /><path d="M926.08 425.770667a418.133333 418.133333 0 0 0-327.936-327.893334 96.298667 96.298667 0 0 0-115.2 94.378667V423.68a117.461333 117.461333 0 0 0 117.333333 117.333333h231.424a96.341333 96.341333 0 0 0 94.378667-115.2v-0.042666z m-69.461333 39.424a32.042667 32.042667 0 0 1-24.917334 11.861333h-231.424a53.418667 53.418667 0 0 1-53.333333-53.333333V192.298667a32.341333 32.341333 0 0 1 38.570667-31.616 354.133333 354.133333 0 0 1 277.802666 277.76 32.042667 32.042667 0 0 1-6.698666 26.624v0.128z m11.136 184.149333A394.581333 394.581333 0 1 1 374.656 156.288a32 32 0 0 1 18.688 61.226667 330.581333 330.581333 0 1 0 413.141333 413.184 32.042667 32.042667 0 0 1 61.269334 18.645333z" fill="currentColor" /></svg>