<svg class="icon" width="32px" height="32.00px" viewBox="0 0 1024 1024" version="1.1" xmlns="http://www.w3.org/2000/svg"><path d="M0 0h1024v1024H0z" fill="currentColor" fill-opacity="0" /><path d="M869.034667 439.04l-78.464 78.506667a32 32 0 1 1-45.269334-45.269334l78.464-78.506666a137.130667 137.130667 0 0 0 0-193.664 140.117333 140.117333 0 0 0-193.621333 0L486.826667 343.466667a95.104 95.104 0 0 0-12.8 15.232 136.064 136.064 0 0 0 12.8 178.474666 32 32 0 1 1-45.226667 45.269334 199.082667 199.082667 0 0 1-20.224-260.053334c5.888-8.746667 12.672-16.810667 20.224-24.149333l143.317333-143.36a200.917333 200.917333 0 1 1 284.117334 284.16z m-331.904 2.517333a32 32 0 0 0 0 45.269334 135.509333 135.509333 0 0 1 31.957333 143.061333 130.901333 130.901333 0 0 1-31.957333 50.645333L393.813333 823.893333a140.117333 140.117333 0 0 1-193.621333 0 137.130667 137.130667 0 0 1 0-193.664l78.464-78.506666A32 32 0 0 0 233.386667 506.453333l-78.464 78.506667a200.96 200.96 0 1 0 284.16 284.16l143.317333-143.36a194.261333 194.261333 0 0 0 46.933333-74.922667 201.045333 201.045333 0 0 0-46.933333-209.066666 31.957333 31.957333 0 0 0-45.269333-0.213334z" fill="currentColor" /></svg>