<svg class="icon" width="32px" height="32.00px" viewBox="0 0 1024 1024" version="1.1" xmlns="http://www.w3.org/2000/svg"><path d="M0 0h1024v1024H0z" fill="currentColor" fill-opacity="0" /><path d="M873.856 150.101333a184.789333 184.789333 0 0 0-261.290667 0L163.157333 599.509333a116.608 116.608 0 0 0-32.810666 63.701334l-33.706667 202.154666a53.76 53.76 0 0 0 61.866667 61.866667l202.197333-33.706667a116.48 116.48 0 0 0 63.658667-32.768L873.770667 411.349333a184.746667 184.746667 0 0 0 0-261.248h0.085333z m-494.634667 665.6a52.906667 52.906667 0 0 1-28.928 14.890667l-188.074666 31.317333 31.317333-188.032a52.906667 52.906667 0 0 1 14.890667-28.928l344.874666-344.874666 170.666667 170.666666-344.746667 344.96zM828.629333 366.293333l-59.306666 59.306667-170.666667-170.666667 59.306667-59.306666a120.746667 120.746667 0 1 1 170.666666 170.666666z" fill="currentColor" /></svg>