<svg class="icon" width="32px" height="32.00px" viewBox="0 0 1024 1024" version="1.1" xmlns="http://www.w3.org/2000/svg"><path d="M384.938667 140.672a204.074667 204.074667 0 0 1 254.122666 0l213.333334 171.52a201.386667 201.386667 0 0 1 75.605333 157.866667v255.658666A202.794667 202.794667 0 0 1 725.333333 928.170667h-117.333333v-202.453334a96 96 0 1 0-192 0v202.453334H298.666667a202.794667 202.794667 0 0 1-202.666667-202.453334v-255.658666a201.386667 201.386667 0 0 1 75.605333-157.866667z m214.016 49.877333a139.733333 139.733333 0 0 0-173.952 0l-213.333334 171.52a137.685333 137.685333 0 0 0-51.669333 107.818667v255.658667A138.709333 138.709333 0 0 0 298.666667 864h53.333333v-138.453333a160 160 0 0 1 320 0v138.453333H725.333333a138.709333 138.709333 0 0 0 138.666667-138.453333l-0.042667-255.658667a137.685333 137.685333 0 0 0-51.669333-107.818667z" fill="currentColor" /></svg>