<svg class="icon" width="32px" height="32.00px" viewBox="0 0 1024 1024" version="1.1" xmlns="http://www.w3.org/2000/svg"><path d="M0 0h1024v1024H0z" fill="currentColor" fill-opacity="0" /><path d="M714.666667 752.554667v21.632c0 37.205333-13.781333 73.045333-38.784 100.608a32 32 0 0 1-47.445334-43.008 85.76 85.76 0 0 0 22.229334-57.642667v-21.632a125.269333 125.269333 0 0 0-94.976-122.069333 38.613333 38.613333 0 0 0-28.074667 3.541333 254.848 254.848 0 0 1-244.309333 0 38.656 38.656 0 0 0-28.373334-3.754667 125.312 125.312 0 0 0-95.018666 122.069334v21.632c0 21.333333 7.893333 41.856 22.229333 57.642666a32 32 0 0 1-47.402667 42.965334 149.546667 149.546667 0 0 1-38.784-100.608v-21.632a189.184 189.184 0 0 1 143.530667-184.192 103.509333 103.509333 0 0 1 74.922667 9.898666 190.421333 190.421333 0 0 0 182.058666 0 103.296 103.296 0 0 1 74.666667-9.728 189.44 189.44 0 0 1 143.530667 184.277334z m69.802666-184.149334a32 32 0 0 0-15.445333 62.122667 125.269333 125.269333 0 0 1 94.976 122.069333v21.632c0 21.333333-7.893333 41.856-22.229333 57.642667a32 32 0 0 0 47.445333 43.008c25.002667-27.562667 38.826667-63.402667 38.784-100.608v-21.632a189.226667 189.226667 0 0 0-143.530667-184.234667zM202.666667 341.333333a202.666667 202.666667 0 1 1 405.333333 0 202.666667 202.666667 0 0 1-405.333333 0z m64 0a138.666667 138.666667 0 1 0 277.333333 0 138.666667 138.666667 0 0 0-277.333333 0z m554.666666 0a202.794667 202.794667 0 0 0-177.365333-201.088 32 32 0 0 0-7.936 63.488 138.709333 138.709333 0 0 1 69.290667 245.888 32 32 0 1 0 40.021333 49.92A201.898667 201.898667 0 0 0 821.333333 341.333333z" fill="currentColor" /></svg>