<svg class="icon" width="32px" height="32.00px" viewBox="0 0 1024 1024" version="1.1" xmlns="http://www.w3.org/2000/svg"><path d="M0 0h1024v1024H0z" fill="currentColor" fill-opacity="0" /><path d="M704 565.333333a96.085333 96.085333 0 0 0-96 96v170.666667a96 96 0 1 0 192 0v-170.666667a96.085333 96.085333 0 0 0-96-96z m32 266.666667a32 32 0 1 1-64 0v-170.666667a32 32 0 1 1 64 0v170.666667zM320 565.333333a96.085333 96.085333 0 0 0-96 96v170.666667a96 96 0 1 0 192 0v-170.666667a96.085333 96.085333 0 0 0-96-96z m32 266.666667a32 32 0 1 1-64 0v-170.666667a32 32 0 1 1 64 0v170.666667z m576-320v213.333333a32 32 0 1 1-64 0v-213.333333a352 352 0 1 0-704 0v213.333333a32 32 0 1 1-64 0v-213.333333c0-229.76 186.24-416 416-416s416 186.24 416 416z" fill="currentColor" /></svg>