<svg t="1677332046558" class="icon" viewBox="0 0 1024 1024" version="1.1" xmlns="http://www.w3.org/2000/svg" p-id="3704" xmlns:xlink="http://www.w3.org/1999/xlink" width="32" height="32"><path d="M725.333333 258.56a128 128 0 0 0-49.066666 246.186667A85.333333 85.333333 0 0 1 597.333333 557.226667h-170.666666a166.826667 166.826667 0 0 0-85.333334 23.893333V336.213333a128 128 0 1 0-85.333333 0v356.693334a128 128 0 1 0 92.16 2.133333A85.333333 85.333333 0 0 1 426.666667 642.56h170.666666a170.666667 170.666667 0 0 0 166.826667-134.826667A128 128 0 0 0 725.333333 258.56z m-426.666666-85.333333a42.666667 42.666667 0 1 1 0 85.333333 42.666667 42.666667 0 0 1 0-85.333333z m0 682.666666a42.666667 42.666667 0 1 1 0-85.333333 42.666667 42.666667 0 0 1 0 85.333333z m426.666666-426.666666a42.666667 42.666667 0 1 1 0-85.333334 42.666667 42.666667 0 0 1 0 85.333334z" fill="currentColor" p-id="3705"></path></svg>