<svg class="icon" width="32px" height="32.00px" viewBox="0 0 1024 1024" version="1.1" xmlns="http://www.w3.org/2000/svg"><path d="M0 0h1024v1024H0z" fill="currentColor" fill-opacity="0" /><path d="M875.989333 621.226667L661.333333 836.266667a315.264 315.264 0 0 1-221.866666 91.648 299.349333 299.349333 0 0 1-213.717334-87.594667 309.632 309.632 0 0 1 4.053334-436.48l244.394666-245.077333a213.717333 213.717333 0 0 1 302.933334 0 215.168 215.168 0 0 1 0 303.36l-245.546667 246.229333a125.824 125.824 0 0 1-174.037333 0 123.733333 123.733333 0 0 1 0-174.293333l215.68-216.277334a32 32 0 1 1 45.312 45.226667l-215.68 216.277333a59.477333 59.477333 0 0 0 0 83.882667 60.202667 60.202667 0 0 0 83.370666 0l245.546667-246.229333a150.997333 150.997333 0 0 0 0-212.949334 153.216 153.216 0 0 0-212.096 0l-244.394667 245.077334a248.533333 248.533333 0 0 0-4.053333 346.069333 235.605333 235.605333 0 0 0 168.362667 68.778667 250.794667 250.794667 0 0 0 176.469333-72.874667l214.528-215.125333a32.042667 32.042667 0 0 1 45.354667 45.226666l0.042666 0.085334z" fill="currentColor" /></svg>