<svg class="icon" width="32px" height="32.00px" viewBox="0 0 1024 1024" version="1.1" xmlns="http://www.w3.org/2000/svg"><path d="M0 0h1024v1024H0z" fill="currentColor" fill-opacity="0" /><path d="M887.253333 413.653333l-24.704-24.704a53.333333 53.333333 0 0 1-15.701333-37.973333v-34.730667a139.221333 139.221333 0 0 0-139.093333-139.093333h-34.773334c-14.250667 0-27.904-5.632-37.973333-15.701333l-24.704-24.704a139.221333 139.221333 0 0 0-196.693333 0l-24.704 24.704a53.333333 53.333333 0 0 1-37.973334 15.701333h-34.730666a139.221333 139.221333 0 0 0-139.093334 139.093333v34.730667c0 14.250667-5.632 27.904-15.701333 37.973333l-24.704 24.704a139.221333 139.221333 0 0 0 0 196.693334l24.704 24.704c10.112 10.069333 15.786667 23.722667 15.701333 37.973333v34.730667a139.221333 139.221333 0 0 0 139.093334 139.093333h34.730666c14.250667 0 27.904 5.632 37.973334 15.701333l24.704 24.704a139.178667 139.178667 0 0 0 196.693333 0l24.704-24.704a53.333333 53.333333 0 0 1 37.973333-15.701333h34.773334a139.264 139.264 0 0 0 139.093333-139.093333v-34.730667c0-14.250667 5.632-27.904 15.701333-37.973333l24.704-24.704a139.221333 139.221333 0 0 0 0-196.693334z m-45.269333 151.424l-24.704 24.704a116.864 116.864 0 0 0-34.474667 83.2v34.730667a75.178667 75.178667 0 0 1-75.093333 75.093333h-34.773333a116.778667 116.778667 0 0 0-83.2 34.474667l-24.704 24.704a75.136 75.136 0 0 1-106.197334 0l-24.704-24.704a116.864 116.864 0 0 0-83.2-34.474667h-34.730666a75.178667 75.178667 0 0 1-75.093334-75.093333v-34.730667a116.778667 116.778667 0 0 0-34.474666-83.2l-24.704-24.704a75.178667 75.178667 0 0 1 0-106.197333l24.704-24.704c22.144-22.016 34.56-51.968 34.474666-83.2v-34.730667a75.178667 75.178667 0 0 1 75.093334-75.093333h34.730666a116.778667 116.778667 0 0 0 83.2-34.474667l24.704-24.704a75.136 75.136 0 0 1 106.197334 0l24.704 24.704c22.016 22.144 51.968 34.56 83.2 34.474667h34.773333a75.221333 75.221333 0 0 1 75.093333 75.093333v34.730667a116.778667 116.778667 0 0 0 34.474667 83.2l24.704 24.704a75.178667 75.178667 0 0 1 0 106.197333z m-179.2-203.733333a32 32 0 0 1 0 45.269333l-256 256a32 32 0 0 1-45.226667-45.269333l256-256a32.042667 32.042667 0 0 1 45.056 0h0.170667z m-1.28 257.322667a42.666667 42.666667 0 1 1-42.666667-42.666667 42.666667 42.666667 0 0 1 42.496 42.666667h0.170667z m-298.666667-213.333334a42.666667 42.666667 0 1 1 42.666667 42.666667 42.666667 42.666667 0 0 1-42.837333-42.666667h0.170666z" fill="currentColor" /></svg>