<svg class="icon" width="32px" height="32.00px" viewBox="0 0 1024 1024" version="1.1" xmlns="http://www.w3.org/2000/svg"><path d="M0 0h1024v1024H0z" fill="currentColor" fill-opacity="0" /><path d="M544 896a32 32 0 0 1-32 32H341.333333A202.922667 202.922667 0 0 1 138.666667 725.333333V298.666667A202.922667 202.922667 0 0 1 341.333333 96h170.666667a32 32 0 1 1 0 64H341.333333A138.837333 138.837333 0 0 0 202.666667 298.666667v426.666666A138.837333 138.837333 0 0 0 341.333333 864h170.666667a32 32 0 0 1 32 32z m331.946667-406.613333l-170.666667-170.666667a32 32 0 1 0-45.269333 45.269333l116.053333 116.053334H426.666667a32 32 0 1 0 0 64h349.397333l-116.053333 116.053333a32 32 0 1 0 45.226666 45.269333l170.666667-170.666666a32.042667 32.042667 0 0 0 0.042667-45.312z" fill="currentColor" /></svg>