<svg class="icon" width="32px" height="32.00px" viewBox="0 0 1024 1024" version="1.1" xmlns="http://www.w3.org/2000/svg"><path d="M0 0h1024v1024H0z" fill="currentColor" fill-opacity="0" /><path d="M512 96c-229.76 0-416 186.24-416 416s186.24 416 416 416 416-186.24 416-416c-0.256-229.632-186.368-415.744-416-416z m0 768A352 352 0 1 1 864 512 352.384 352.384 0 0 1 512 864z m150.613333-331.989333a32 32 0 1 1-45.226666 45.269333L512 471.893333l-105.386667 105.386667a32 32 0 0 1-45.269333-45.269333l128-128a32 32 0 0 1 45.269333 0l128 128z" fill="currentColor" /></svg>