<svg class="icon" width="32px" height="32.00px" viewBox="0 0 1024 1024" version="1.1" xmlns="http://www.w3.org/2000/svg"><path d="M0 0h1024v1024H0z" fill="currentColor" fill-opacity="0" /><path d="M725.333333 96H298.666667A202.922667 202.922667 0 0 0 96 298.666667v426.666666A202.922667 202.922667 0 0 0 298.666667 928h426.666666A202.922667 202.922667 0 0 0 928 725.333333V298.666667A202.922667 202.922667 0 0 0 725.333333 96z m32 448h106.666667v106.666667h-106.666667v-106.666667z m0-170.666667h106.666667v106.666667h-106.666667v-106.666667zM864 298.666667v10.666666h-106.666667v-145.066666A138.624 138.624 0 0 1 864 298.666667z m-170.666667-138.666667v320h-362.666666v-320h362.666666z m-426.666666 490.666667h-106.666667v-106.666667h106.666667v106.666667z m-106.666667-170.666667v-106.666667h106.666667v106.666667h-106.666667z m106.666667-315.733333v145.066666h-106.666667V298.666667a138.624 138.624 0 0 1 106.666667-134.570667v0.170667zM160 725.333333v-10.666666h106.666667v145.066666A138.709333 138.709333 0 0 1 160 725.333333z m170.666667 138.666667v-320h362.666666v320h-362.666666z m426.666666-4.266667v-145.066666h106.666667V725.333333a138.709333 138.709333 0 0 1-106.666667 134.570667v-0.170667z" fill="currentColor" /></svg>