<svg class="icon" width="32px" height="32.00px" viewBox="0 0 1024 1024" version="1.1" xmlns="http://www.w3.org/2000/svg"><path d="M0 0h1024v1024H0z" fill="currentColor" fill-opacity="0" /><path d="M768 309.333333h-10.666667V256A160.170667 160.170667 0 0 0 597.333333 96H256A160.170667 160.170667 0 0 0 96 256v426.666667a32 32 0 0 0 54.869333 22.4l74.197334-75.733334h41.6V682.666667A160.170667 160.170667 0 0 0 426.666667 842.666667h372.266666l74.197334 75.733333A31.957333 31.957333 0 0 0 928 896V469.333333A160.170667 160.170667 0 0 0 768 309.333333z m-556.373333 256a32 32 0 0 0-22.869334 9.6l-28.757333 29.354667V256A96.085333 96.085333 0 0 1 256 160h341.333333A96.085333 96.085333 0 0 1 693.333333 256v213.333333A96.085333 96.085333 0 0 1 597.333333 565.333333H211.626667z m652.373333 252.288l-28.757333-29.354666a31.957333 31.957333 0 0 0-22.869334-9.6H426.666667A96.085333 96.085333 0 0 1 330.666667 682.666667v-53.333334H597.333333A160.170667 160.170667 0 0 0 757.333333 469.333333V373.333333H768A96.085333 96.085333 0 0 1 864 469.333333v348.288z" fill="currentColor" /></svg>