<?xml version="1.0" standalone="no"?><!DOCTYPE svg PUBLIC "-//W3C//DTD SVG 1.1//EN" "http://www.w3.org/Graphics/SVG/1.1/DTD/svg11.dtd"><svg t="1717759513168" class="icon" viewBox="0 0 1024 1024" version="1.1" xmlns="http://www.w3.org/2000/svg" p-id="42408" width="64" height="64" xmlns:xlink="http://www.w3.org/1999/xlink"><path d="M378.7 218.9c29.5 0 53.3 23.9 53.3 53.3v480c0 29.5-23.9 53.3-53.3 53.3-29.5 0-53.3-23.9-53.3-53.3v-480c-0.1-29.4 23.8-53.3 53.3-53.3z m560 0c29.5 0 53.3 23.9 53.3 53.3v480c0 29.5-23.9 53.3-53.3 53.3s-53.3-23.9-53.3-53.3v-480c-0.1-29.4 23.8-53.3 53.3-53.3z" fill="#29CCB6" p-id="42409"></path><path d="M672 58.9c29.5 0 53.3 23.9 53.3 53.3v800c0 29.5-23.9 53.3-53.3 53.3s-53.3-23.9-53.3-53.3v-800c0-29.4 23.8-53.3 53.3-53.3z m-586.7 0c29.5 0 53.3 23.9 53.3 53.3v800c0 29.5-23.9 53.3-53.3 53.3S32 941.7 32 912.3v-800c0-29.5 23.9-53.4 53.3-53.4z" fill="#4585F5" p-id="42410"></path></svg>